<svg height="34" width="100" fill="none" viewBox="0 0 100 34" class="_3AQw2tg6uz">
    <path d="M4.27393 17.5996L8.86154 3.37494H26.4407L28.2247 8.90897H12.6965L11.7035 12.0482H29.2369L31.8729 20.2241L17.6511 30.7076L4.13506 20.739H13.2619L17.6108 23.9464L26.2163 17.603L4.27393 17.5996ZM28.5602 0.00016368H6.74215L0 21.0164L17.6511 34L35.3021 21.012L28.5602 0.00016368Z" fill="white"></path>
    <path d="M53.0855 9.61398L52.0028 11.9425C50.3239 10.9128 48.6446 10.4872 47.474 10.4872C45.9496 10.4872 44.9553 11.0694 44.9553 12.1219C44.9553 15.5475 53.3064 13.7117 53.2842 19.3542C53.2842 22.1531 50.8542 23.877 47.4519 23.877C45.0216 23.877 42.7241 22.8695 41.1335 21.3918L42.26 19.1076C43.8508 20.5856 45.839 21.3918 47.496 21.3918C49.3075 21.3918 50.3901 20.6977 50.3901 19.4883C50.3901 15.9955 42.0392 17.9435 42.0392 12.3683C42.0392 9.68115 44.3146 8.00196 47.6728 8.00196C49.6831 8.00196 51.6495 8.65135 53.0855 9.61398" fill="white"></path>
    <path d="M56.1786 11.8756H58.697V23.7876H56.1786V11.8756ZM58.9183 8.47234C58.9183 9.36796 58.2774 10.0173 57.4377 10.0173C56.5983 10.0173 55.9575 9.36796 55.9575 8.47234C55.9575 7.55413 56.5983 6.90474 57.4377 6.90474C58.2774 6.90474 58.9183 7.55413 58.9183 8.47234Z" fill="white"></path>
    <path d="M62.9855 8.06276L62.9131 8.13627V23.7875L62.9855 23.8608H63.9134L63.9857 23.7875V16.8301H71.3366L71.4091 16.7566V15.8164L71.3366 15.7429H63.9857V9.12753H72.2866L72.3588 9.05417V8.13627L72.2866 8.06276H62.9855Z" fill="white"></path>
    <path d="M75.0503 7.88371C74.5841 7.88371 74.2047 8.27836 74.2047 8.76339C74.2047 9.26064 74.5841 9.66504 75.0503 9.66504C75.5168 9.66504 75.896 9.26064 75.896 8.76339C75.896 8.27836 75.5168 7.88371 75.0503 7.88371Z" fill="white"></path>
    <path d="M74.5864 12.0485L74.5139 12.1219V23.7875L74.5864 23.8608H75.4924L75.5649 23.7875V12.1219L75.4924 12.0485H74.5864Z" fill="white"></path>
    <path d="M87.2674 12.0485L87.2001 12.0951L83.1362 22.5796L79.0505 12.095L78.983 12.0485H77.9886L77.9214 12.1494L82.5831 23.815L82.6503 23.8608H83.6001L83.6674 23.8147L88.307 12.1493L88.2396 12.0485H87.2674" fill="white"></path>
    <path d="M89.9763 17.3102C90.2251 14.7428 92.0664 13.0239 94.5803 13.0239C97.0721 13.0239 98.8033 14.7034 99.0093 17.3102H89.9763ZM99.9992 18.2134C100.035 16.298 99.466 14.6362 98.3989 13.5341C97.4435 12.5475 96.123 12.0261 94.5803 12.0261C91.287 12.0261 88.8966 14.5241 88.8966 17.9658C88.8966 21.3946 91.287 23.8833 94.5803 23.8833C96.3872 23.8833 97.991 23.2147 99.0965 22.0011L99.0974 21.9025L98.5669 21.2983L98.4594 21.2975C97.5368 22.3215 96.175 22.8856 94.6247 22.8856C91.9818 22.8856 90.1122 21.0405 89.9511 18.2855H99.9267L99.9992 18.2134" fill="white"></path>
</svg>