<?xml version="1.0" encoding="utf-8"?>
<!-- Generator: Adobe Illustrator 25.2.0, SVG Export Plug-In . SVG Version: 6.00 Build 0)  -->
<svg version="1.1" id="Layer_1" xmlns="http://www.w3.org/2000/svg" xmlns:xlink="http://www.w3.org/1999/xlink" x="0px" y="0px"
	 viewBox="0 0 100 34" style="enable-background:new 0 0 100 34;" xml:space="preserve">
<style type="text/css">
	.st0{fill:#fff;}
</style>
<path class="st0" d="M4.3,17.6L8.9,3.4h17.6l1.8,5.5H12.7l-1,3.1h17.5l2.6,8.2L17.7,30.7l-13.5-10h9.1l4.3,3.2l8.6-6.3L4.3,17.6z
	 M28.6,0H6.7L0,21l17.7,13l17.7-13L28.6,0z"/>
<path class="st0" d="M53.1,9.6L52,11.9c-1.7-1-3.4-1.5-4.5-1.5c-1.5,0-2.5,0.6-2.5,1.6c0,3.4,8.4,1.6,8.3,7.2c0,2.8-2.4,4.5-5.8,4.5
	c-2.4,0-4.7-1-6.3-2.5l1.1-2.3c1.6,1.5,3.6,2.3,5.2,2.3c1.8,0,2.9-0.7,2.9-1.9c0-3.5-8.4-1.5-8.4-7.1C42,9.7,44.3,8,47.7,8
	C49.7,8,51.6,8.7,53.1,9.6"/>
<path class="st0" d="M56.2,11.9h2.5v11.9h-2.5V11.9z M58.9,8.5c0,0.9-0.6,1.5-1.5,1.5C56.6,10,56,9.4,56,8.5c0-0.9,0.6-1.6,1.5-1.6
	C58.3,6.9,58.9,7.6,58.9,8.5z"/>
<path class="st0" d="M63,8.1L63,8.1l-0.1,15.7l0.1,0.1h0.9l0.1-0.1v-7h7.4l0.1-0.1v-0.9l-0.1-0.1H64V9.1h8.3l0.1-0.1V8.1l-0.1-0.1
	H63z"/>
<path class="st0" d="M75.1,7.9c-0.5,0-0.8,0.4-0.8,0.9c0,0.5,0.4,0.9,0.8,0.9c0.5,0,0.8-0.4,0.8-0.9C75.9,8.3,75.5,7.9,75.1,7.9z"/>
<path class="st0" d="M74.6,12L74.6,12l-0.1,11.7l0.1,0.1h0.9l0.1-0.1V12.1L75.5,12H74.6z"/>
<path class="st0" d="M87.3,12L87.3,12l-4.1,10.5l-4.1-10.5L79,12h-1l-0.1,0.1l4.7,11.7l0.1,0h0.9l0.1,0l4.6-11.7L88.2,12H87.3"/>
<path class="st0" d="M90,17.3c0.2-2.6,2.1-4.3,4.6-4.3c2.5,0,4.2,1.7,4.4,4.3H90z M100,18.2c0-1.9-0.5-3.6-1.6-4.7
	c-1-1-2.3-1.5-3.8-1.5c-3.3,0-5.7,2.5-5.7,5.9c0,3.4,2.4,5.9,5.7,5.9c1.8,0,3.4-0.7,4.5-1.9l0-0.1l-0.5-0.6l-0.1,0
	c-0.9,1-2.3,1.6-3.8,1.6c-2.6,0-4.5-1.8-4.7-4.6L100,18.2L100,18.2"/>
</svg>
